<svg width="1280" height="720" xmlns="http://www.w3.org/2000/svg" xmlns:xlink="http://www.w3.org/1999/xlink" overflow="hidden"><g><rect x="0" y="0" width="1280" height="720"/><path d="M98 275C98 248.49 119.49 227 146 227 172.51 227 194 248.49 194 275 194 301.51 172.51 323 146 323 119.49 323 98 301.51 98 275Z" fill="#29AF8C" fill-rule="evenodd"/><path d="M334 275C334 248.49 355.49 227 382 227 408.51 227 430 248.49 430 275 430 301.51 408.51 323 382 323 355.49 323 334 301.51 334 275Z" fill="#8BC4E0" fill-rule="evenodd"/><path d="M570 275C570 248.49 591.49 227 618 227 644.51 227 666 248.49 666 275 666 301.51 644.51 323 618 323 591.49 323 570 301.51 570 275Z" fill="#8BC4E0" fill-rule="evenodd"/><path d="M806 275C806 248.49 827.49 227 854 227 880.51 227 902 248.49 902 275 902 301.51 880.51 323 854 323 827.49 323 806 301.51 806 275Z" fill="#8BC4E0" fill-rule="evenodd"/><path d="M1042 275C1042 248.49 1063.49 227 1090 227 1116.51 227 1138 248.49 1138 275 1138 301.51 1116.51 323 1090 323 1063.49 323 1042 301.51 1042 275Z" fill="#7C60C6" fill-rule="evenodd"/><path d="M334 412C334 385.49 355.49 364 382 364 408.51 364 430 385.49 430 412 430 438.51 408.51 460 382 460 355.49 460 334 438.51 334 412Z" fill="#8BC4E0" fill-rule="evenodd"/><path d="M570 412C570 385.49 591.49 364 618 364 644.51 364 666 385.49 666 412 666 438.51 644.51 460 618 460 591.49 460 570 438.51 570 412Z" fill="#8BC4E0" fill-rule="evenodd"/><path d="M806 412C806 385.49 827.49 364 854 364 880.51 364 902 385.49 902 412 902 438.51 880.51 460 854 460 827.49 460 806 438.51 806 412Z" fill="#8BC4E0" fill-rule="evenodd"/><path d="M334 139C334 112.49 355.49 91 382 91 408.51 91 430 112.49 430 139 430 165.51 408.51 187 382 187 355.49 187 334 165.51 334 139Z" fill="#8BC4E0" fill-rule="evenodd"/><path d="M570 139C570 112.49 591.49 91 618 91 644.51 91 666 112.49 666 139 666 165.51 644.51 187 618 187 591.49 187 570 165.51 570 139Z" fill="#8BC4E0" fill-rule="evenodd"/><path d="M806 139C806 112.49 827.49 91 854 91 880.51 91 902 112.49 902 139 902 165.51 880.51 187 854 187 827.49 187 806 165.51 806 139Z" fill="#8BC4E0" fill-rule="evenodd"/><path d="M0.232595-0.23877 135.532 131.562 135.067 132.039-0.232595 0.23877ZM137.136 128.005 140.075 136.453 131.554 133.736Z" fill="#FFFFFF" transform="matrix(1 0 0 -1 194.5 275.953)"/><path d="M194.5 275.167 327.909 275.167 327.909 275.833 194.5 275.833ZM326.575 271.5 334.575 275.5 326.575 279.5Z" fill="#FFFFFF"/><path d="M194.733 275.261 330.032 407.062 329.567 407.54 194.267 275.739ZM331.636 403.505 334.575 411.953 326.054 409.236Z" fill="#FFFFFF"/><path d="M0 0 140.075 0.000104987" stroke="#FFFFFF" stroke-width="0.666667" stroke-miterlimit="8" fill="none" fill-rule="evenodd" transform="matrix(-1 0 0 1 570.575 275.5)"/><path d="M0 0 140.075 0.000104987" stroke="#FFFFFF" stroke-width="0.666667" stroke-miterlimit="8" stroke-dasharray="5.33333 2 0.666667 2" fill="none" fill-rule="evenodd" transform="matrix(-1 0 0 1 806.575 275.5)"/><path d="M0 0 140.075 0.000104987" stroke="#FFFFFF" stroke-width="0.666667" stroke-miterlimit="8" stroke-dasharray="5.33333 2 0.666667 2" fill="none" fill-rule="evenodd" transform="matrix(-1 0 0 1 806.575 139.5)"/><path d="M806.575 275.953 666.5 139.5" stroke="#FFFFFF" stroke-width="0.666667" stroke-miterlimit="8" stroke-dasharray="5.33333 2 0.666667 2" fill="none" fill-rule="evenodd"/><path d="M806.575 412.406 666.5 139.5" stroke="#FFFFFF" stroke-width="0.666667" stroke-miterlimit="8" stroke-dasharray="5.33333 2 0.666667 2" fill="none" fill-rule="evenodd"/><path d="M806.575 411.953 666.5 275.5" stroke="#FFFFFF" stroke-width="0.666667" stroke-miterlimit="8" stroke-dasharray="5.33333 2 0.666667 2" fill="none" fill-rule="evenodd"/><path d="M0 0 140.075 0.000104987" stroke="#FFFFFF" stroke-width="0.666667" stroke-miterlimit="8" stroke-dasharray="5.33333 2 0.666667 2" fill="none" fill-rule="evenodd" transform="matrix(-1 0 0 1 806.575 412.5)"/><path d="M0 0 140.075 136.453" stroke="#FFFFFF" stroke-width="0.666667" stroke-miterlimit="8" stroke-dasharray="5.33333 2 0.666667 2" fill="none" fill-rule="evenodd" transform="matrix(-1 0 0 1 806.575 275.5)"/><path d="M0 0 140.075 136.453" stroke="#FFFFFF" stroke-width="0.666667" stroke-miterlimit="8" stroke-dasharray="5.33333 2 0.666667 2" fill="none" fill-rule="evenodd" transform="matrix(-1 0 0 1 806.575 139.5)"/><path d="M0 0 140.075 272.906" stroke="#FFFFFF" stroke-width="0.666667" stroke-miterlimit="8" stroke-dasharray="5.33333 2 0.666667 2" fill="none" fill-rule="evenodd" transform="matrix(-1 0 0 1 806.575 139.5)"/><path d="M430.5 139.5 570.575 275.953" stroke="#FFFFFF" stroke-width="0.666667" stroke-miterlimit="8" fill="none" fill-rule="evenodd"/><path d="M0 0 140.075 272.906" stroke="#FFFFFF" stroke-width="0.666667" stroke-miterlimit="8" fill="none" fill-rule="evenodd" transform="matrix(-1 0 0 1 570.575 139.5)"/><path d="M0 0 140.075 136.453" stroke="#FFFFFF" stroke-width="0.666667" stroke-miterlimit="8" fill="none" fill-rule="evenodd" transform="matrix(-1 0 0 1 570.575 275.5)"/><path d="M570.575 411.953 430.5 275.5" stroke="#FFFFFF" stroke-width="0.666667" stroke-miterlimit="8" fill="none" fill-rule="evenodd"/><path d="M0 0 140.075 136.453" stroke="#FFFFFF" stroke-width="0.666667" stroke-miterlimit="8" fill="none" fill-rule="evenodd" transform="matrix(-1 0 0 1 570.575 275.5)"/><path d="M0 0 140.075 0.000104987" stroke="#FFFFFF" stroke-width="0.666667" stroke-miterlimit="8" fill="none" fill-rule="evenodd" transform="matrix(-1 0 0 1 570.575 412.5)"/><path d="M570.575 412.406 430.5 139.5" stroke="#FFFFFF" stroke-width="0.666667" stroke-miterlimit="8" fill="none" fill-rule="evenodd"/><path d="M430.5 139.5 570.575 139.5" stroke="#FFFFFF" stroke-width="0.666667" stroke-miterlimit="8" fill="none" fill-rule="evenodd"/><path d="M0 0 140.075 136.453" stroke="#FFFFFF" stroke-width="0.666667" stroke-miterlimit="8" fill="none" fill-rule="evenodd" transform="matrix(1 0 0 -1 430.5 275.953)"/><path d="M1037.57 271.54 902.267 139.739 902.733 139.261 1038.03 271.062ZM1039.64 267.505 1042.58 275.953 1034.05 273.236Z" fill="#FFFFFF"/><path d="M6.6667-0.333328 140.075-0.333228 140.075 0.333438 6.6667 0.333338ZM8 4.00001 0 0 8-3.99999Z" fill="#FFFFFF" transform="matrix(-1 0 0 1 1042.58 275.5)"/><path d="M5.00821 4.41334 140.308 136.214 139.843 136.692 4.54302 4.89088ZM2.93933 8.4475 0 0 8.5216 2.71704Z" fill="#FFFFFF" transform="matrix(-1 0 0 1 1042.58 275.5)"/><text fill="#FFFFFF" font-family="Cambria Math,Cambria Math_MSFontService,sans-serif" font-weight="400" font-size="24" transform="translate(129.153 285)">ğ‘¡</text><text fill="#FFFFFF" font-family="Cambria Math,Cambria Math_MSFontService,sans-serif" font-weight="400" font-size="18" transform="translate(140 276)">ğ‘–ğ‘›</text><path d="M382.5 91.5001 382.5 187.5" stroke="#000000" stroke-linejoin="round" stroke-miterlimit="10" stroke-dasharray="4 3" fill="none" fill-rule="evenodd"/><text fill="#FFFFFF" font-family="Cambria Math,Cambria Math_MSFontService,sans-serif" font-weight="400" font-size="24" transform="translate(347.844 148)">ğ‘§</text><text fill="#FFFFFF" font-family="Cambria Math,Cambria Math_MSFontService,sans-serif" font-weight="400" font-size="18" transform="translate(358.37 154)">1</text><text fill="#FFFFFF" font-family="Cambria Math,Cambria Math_MSFontService,sans-serif" font-weight="400" font-size="18" transform="translate(360.17 139)">1</text><text fill="#FFFFFF" font-family="Cambria Math,Cambria Math_MSFontService,sans-serif" font-weight="400" font-size="24" transform="translate(391.932 148)">ğœ™</text><text fill="#FFFFFF" font-family="Cambria Math,Cambria Math_MSFontService,sans-serif" font-weight="400" font-size="18" transform="translate(408.732 139)">1</text><text fill="#FFFFFF" font-family="Cambria Math,Cambria Math_MSFontService,sans-serif" font-weight="400" font-size="24" transform="translate(348.755 285)">ğ‘§</text><text fill="#FFFFFF" font-family="Cambria Math,Cambria Math_MSFontService,sans-serif" font-weight="400" font-size="18" transform="translate(359.835 290)">2</text><text fill="#FFFFFF" font-family="Cambria Math,Cambria Math_MSFontService,sans-serif" font-weight="400" font-size="18" transform="translate(361.081 276)">1</text><text fill="#FFFFFF" font-family="Cambria Math,Cambria Math_MSFontService,sans-serif" font-weight="400" font-size="24" transform="translate(392.843 284)">ğœ™</text><text fill="#FFFFFF" font-family="Cambria Math,Cambria Math_MSFontService,sans-serif" font-weight="400" font-size="18" transform="translate(409.643 275)">1</text><text fill="#FFFFFF" font-family="Cambria Math,Cambria Math_MSFontService,sans-serif" font-weight="400" font-size="24" transform="translate(349.665 422)">ğ‘§</text><text fill="#FFFFFF" font-family="Cambria Math,Cambria Math_MSFontService,sans-serif" font-weight="400" font-size="18" transform="translate(360.746 427)">ğ‘</text><text fill="#FFFFFF" font-family="Cambria Math,Cambria Math_MSFontService,sans-serif" font-weight="400" font-size="18" transform="translate(361.992 412)">1</text><text fill="#FFFFFF" font-family="Cambria Math,Cambria Math_MSFontService,sans-serif" font-weight="400" font-size="24" transform="translate(393.754 421)">ğœ™</text><text fill="#FFFFFF" font-family="Cambria Math,Cambria Math_MSFontService,sans-serif" font-weight="400" font-size="18" transform="translate(410.554 412)">1</text><text fill="#FFFFFF" font-family="Cambria Math,Cambria Math_MSFontService,sans-serif" font-weight="400" font-size="24" transform="translate(585.091 421)">ğ‘§</text><text fill="#FFFFFF" font-family="Cambria Math,Cambria Math_MSFontService,sans-serif" font-weight="400" font-size="18" transform="translate(596.171 427)">ğ‘</text><text fill="#FFFFFF" font-family="Cambria Math,Cambria Math_MSFontService,sans-serif" font-weight="400" font-size="18" transform="translate(597.931 412)">2</text><text fill="#FFFFFF" font-family="Cambria Math,Cambria Math_MSFontService,sans-serif" font-weight="400" font-size="24" transform="translate(629.173 421)">ğœ™</text><text fill="#FFFFFF" font-family="Cambria Math,Cambria Math_MSFontService,sans-serif" font-weight="400" font-size="18" transform="translate(646.487 412)">2</text><text fill="#FFFFFF" font-family="Cambria Math,Cambria Math_MSFontService,sans-serif" font-weight="400" font-size="24" transform="translate(820.517 421)">ğ‘§</text><text fill="#FFFFFF" font-family="Cambria Math,Cambria Math_MSFontService,sans-serif" font-weight="400" font-size="18" transform="translate(831.597 427)">ğ‘</text><text fill="#FFFFFF" font-family="Cambria Math,Cambria Math_MSFontService,sans-serif" font-weight="400" font-size="18" transform="translate(833.357 412)">ğ¿</text><text fill="#FFFFFF" font-family="Cambria Math,Cambria Math_MSFontService,sans-serif" font-weight="400" font-size="24" transform="translate(864.612 420)">ğœ™</text><text fill="#FFFFFF" font-family="Cambria Math,Cambria Math_MSFontService,sans-serif" font-weight="400" font-size="18" transform="translate(881.926 412)">ğ¿</text><text fill="#FFFFFF" font-family="Cambria Math,Cambria Math_MSFontService,sans-serif" font-weight="400" font-size="24" transform="translate(821.521 285)">ğ‘§</text><text fill="#FFFFFF" font-family="Cambria Math,Cambria Math_MSFontService,sans-serif" font-weight="400" font-size="18" transform="translate(832.601 290)">2</text><text fill="#FFFFFF" font-family="Cambria Math,Cambria Math_MSFontService,sans-serif" font-weight="400" font-size="18" transform="translate(834.361 275)">ğ¿</text><text fill="#FFFFFF" font-family="Cambria Math,Cambria Math_MSFontService,sans-serif" font-weight="400" font-size="24" transform="translate(865.523 284)">ğœ™</text><text fill="#FFFFFF" font-family="Cambria Math,Cambria Math_MSFontService,sans-serif" font-weight="400" font-size="18" transform="translate(882.837 275)">ğ¿</text><text fill="#FFFFFF" font-family="Cambria Math,Cambria Math_MSFontService,sans-serif" font-weight="400" font-size="24" transform="translate(822.346 148)">ğ‘§</text><text fill="#FFFFFF" font-family="Cambria Math,Cambria Math_MSFontService,sans-serif" font-weight="400" font-size="18" transform="translate(832.872 153)">1</text><text fill="#FFFFFF" font-family="Cambria Math,Cambria Math_MSFontService,sans-serif" font-weight="400" font-size="18" transform="translate(835.186 139)">ğ¿</text><text fill="#FFFFFF" font-family="Cambria Math,Cambria Math_MSFontService,sans-serif" font-weight="400" font-size="24" transform="translate(866.434 147)">ğœ™</text><text fill="#FFFFFF" font-family="Cambria Math,Cambria Math_MSFontService,sans-serif" font-weight="400" font-size="18" transform="translate(883.748 138)">ğ¿</text><text fill="#FFFFFF" font-family="Cambria Math,Cambria Math_MSFontService,sans-serif" font-weight="400" font-size="24" transform="translate(583.038 148)">ğ‘§</text><text fill="#FFFFFF" font-family="Cambria Math,Cambria Math_MSFontService,sans-serif" font-weight="400" font-size="18" transform="translate(593.565 153)">1</text><text fill="#FFFFFF" font-family="Cambria Math,Cambria Math_MSFontService,sans-serif" font-weight="400" font-size="18" transform="translate(595.878 138)">2</text><text fill="#FFFFFF" font-family="Cambria Math,Cambria Math_MSFontService,sans-serif" font-weight="400" font-size="24" transform="translate(627.127 147)">ğœ™</text><text fill="#FFFFFF" font-family="Cambria Math,Cambria Math_MSFontService,sans-serif" font-weight="400" font-size="18" transform="translate(644.441 138)">2</text><text fill="#FFFFFF" font-family="Cambria Math,Cambria Math_MSFontService,sans-serif" font-weight="400" font-size="24" transform="translate(584.159 285)">ğ‘§</text><text fill="#FFFFFF" font-family="Cambria Math,Cambria Math_MSFontService,sans-serif" font-weight="400" font-size="18" transform="translate(595.239 291)">2</text><text fill="#FFFFFF" font-family="Cambria Math,Cambria Math_MSFontService,sans-serif" font-weight="400" font-size="18" transform="translate(596.999 276)">2</text><text fill="#FFFFFF" font-family="Cambria Math,Cambria Math_MSFontService,sans-serif" font-weight="400" font-size="24" transform="translate(628.247 285)">ğœ™</text><text fill="#FFFFFF" font-family="Cambria Math,Cambria Math_MSFontService,sans-serif" font-weight="400" font-size="18" transform="translate(645.561 276)">2</text><path d="M382.5 227.5 382.5 323.5" stroke="#000000" stroke-linejoin="round" stroke-miterlimit="10" stroke-dasharray="4 3" fill="none" fill-rule="evenodd"/><path d="M382.5 364.5 382.5 460.5" stroke="#000000" stroke-linejoin="round" stroke-miterlimit="10" stroke-dasharray="4 3" fill="none" fill-rule="evenodd"/><path d="M618.5 91.5001 618.5 187.5" stroke="#000000" stroke-linejoin="round" stroke-miterlimit="10" stroke-dasharray="4 3" fill="none" fill-rule="evenodd"/><path d="M618.5 227.5 618.5 323.5" stroke="#000000" stroke-linejoin="round" stroke-miterlimit="10" stroke-dasharray="4 3" fill="none" fill-rule="evenodd"/><path d="M618.5 364.5 618.5 460.5" stroke="#000000" stroke-linejoin="round" stroke-miterlimit="10" stroke-dasharray="4 3" fill="none" fill-rule="evenodd"/><path d="M854.5 364.5 854.5 460.5" stroke="#000000" stroke-linejoin="round" stroke-miterlimit="10" stroke-dasharray="4 3" fill="none" fill-rule="evenodd"/><path d="M854.5 227.5 854.5 323.5" stroke="#000000" stroke-linejoin="round" stroke-miterlimit="10" stroke-dasharray="4 3" fill="none" fill-rule="evenodd"/><path d="M854.5 91.5001 854.5 187.5" stroke="#000000" stroke-linejoin="round" stroke-miterlimit="10" stroke-dasharray="4 3" fill="none" fill-rule="evenodd"/><path d="M1090.5 227.5 1090.5 323.5" stroke="#000000" stroke-linejoin="round" stroke-miterlimit="10" stroke-dasharray="4 3" fill="none" fill-rule="evenodd"/><text fill="#FFFFFF" font-family="Cambria Math,Cambria Math_MSFontService,sans-serif" font-weight="400" font-size="24" transform="translate(1044.26 283)">ğ‘§</text><text fill="#FFFFFF" font-family="Cambria Math,Cambria Math_MSFontService,sans-serif" font-weight="400" font-size="18" transform="translate(1057.1 274)">ğ‘œğ‘¢ğ‘¡</text><text fill="#FFFFFF" font-family="Cambria Math,Cambria Math_MSFontService,sans-serif" font-weight="400" font-size="24" transform="translate(1093.2 283)">ğœ™</text><text fill="#FFFFFF" font-family="Cambria Math,Cambria Math_MSFontService,sans-serif" font-weight="400" font-size="18" transform="translate(1110.51 274)">ğ‘œğ‘¢ğ‘¡</text><text fill="#FFFFFF" font-family="Cambria Math,Cambria Math_MSFontService,sans-serif" font-weight="400" font-size="24" transform="translate(88.7678 80)">Input layer</text><text fill="#FFFFFF" font-family="Cambria Math,Cambria Math_MSFontService,sans-serif" font-weight="400" font-size="24" transform="translate(546.193 79)">Hidden layers</text><text fill="#FFFFFF" font-family="Cambria Math,Cambria Math_MSFontService,sans-serif" font-style="oblique" font-weight="400" font-size="24" transform="translate(693.093 79)">L</text><text fill="#FFFFFF" font-family="Cambria Math,Cambria Math_MSFontService,sans-serif" font-weight="400" font-size="24" transform="translate(1024.99 80)">Output layer</text><path d="M1090.83 323.5 1090.83 394.531 1090.17 394.531 1090.17 323.5ZM1094.5 393.198 1090.5 401.198 1086.5 393.198Z" fill="#FFFFFF"/><path d="M778.5 558.5 854.5 510.5 930.5 558.5 854.5 606.5Z" stroke="#FFFFFF" stroke-linejoin="round" stroke-miterlimit="10" fill="none" fill-rule="evenodd"/><text fill="#FFFFFF" font-family="Cambria Math,Cambria Math_MSFontService,sans-serif" font-weight="400" font-size="24" transform="translate(830.753 566)">Loss</text><text fill="#FFFFFF" font-family="Cambria Math,Cambria Math_MSFontService,sans-serif" font-weight="400" font-size="24" transform="translate(610.189 620)">ğ‘ ğ‘ğ‘œğ‘Ÿğ‘’</text><text fill="#FFFFFF" font-family="Cambria Math,Cambria Math_MSFontService,sans-serif" font-weight="400" font-size="24" transform="translate(668.883 620)"></text><text fill="#FFFFFF" font-family="Cambria Math,Cambria Math_MSFontService,sans-serif" font-weight="400" font-size="24" transform="translate(680.883 620)">â‰¤</text><text fill="#FFFFFF" font-family="Cambria Math,Cambria Math_MSFontService,sans-serif" font-weight="400" font-size="24" transform="translate(705.549 620)"></text><text fill="#FFFFFF" font-family="Cambria Math,Cambria Math_MSFontService,sans-serif" font-weight="400" font-size="24" transform="translate(710.883 620)">ğœ€</text><text fill="#FFFFFF" font-family="Cambria Math,Cambria Math_MSFontService,sans-serif" font-weight="400" font-size="24" transform="translate(612.679 522)">ğ‘ ğ‘ğ‘œğ‘Ÿğ‘’</text><text fill="#FFFFFF" font-family="Cambria Math,Cambria Math_MSFontService,sans-serif" font-weight="400" font-size="24" transform="translate(678.039 522)">&gt;</text><text fill="#FFFFFF" font-family="Cambria Math,Cambria Math_MSFontService,sans-serif" font-weight="400" font-size="24" transform="translate(702.706 522)"></text><text fill="#FFFFFF" font-family="Cambria Math,Cambria Math_MSFontService,sans-serif" font-weight="400" font-size="24" transform="translate(708.039 522)">ğœ€</text><path d="M0-0.333333 21.4091-0.333333 21.4091 53.7843 21.0758 53.4509 35.4849 53.4509 35.4849 54.1176 20.7425 54.1176 20.7425 0 21.0758 0.333333 0 0.333333ZM34.1516 49.7843 42.1516 53.7843 34.1516 57.7842Z" fill="#FFFFFF" transform="matrix(-1 1.22465e-16 1.22465e-16 1 778.652 558.5)"/><path d="M778.547 558.933 755.69 558.933 755.69 514.5 756.024 514.833 740.167 514.833 740.167 514.167 756.357 514.167 756.357 558.6 756.024 558.266 778.547 558.266ZM741.5 518.5 733.5 514.5 741.5 510.5Z" fill="#FFFFFF"/><text fill="#FF0000" font-family="Cambria Math,Cambria Math_MSFontService,sans-serif" font-weight="400" font-size="24" transform="translate(535.686 620)">OK</text><path d="M206.5 564.5 335.5 516.5 464.5 564.5 335.5 612.5Z" stroke="#FFFFFF" stroke-width="1.33333" stroke-miterlimit="8" fill-rule="evenodd"/><text fill="#FFFFFF" font-family="Cambria Math,Cambria Math_MSFontService,sans-serif" font-weight="400" font-size="24" transform="translate(283.349 572)">Optimizer</text><path d="M0-0.333333 68.3661-0.333333 68.3661 49.8838 68.0328 49.5504 129.399 49.5504 129.399 50.2171 67.6994 50.2171 67.6994 0 68.0328 0.333333 0 0.333333ZM128.066 45.8838 136.066 49.8838 128.066 53.8838Z" fill="#FFFFFF" transform="matrix(-1 1.22465e-16 1.22465e-16 1 600.566 514.5)"/><path d="M206.5 564.296 206.5 463.5" stroke="#FFFFFF" stroke-linejoin="round" stroke-miterlimit="10" stroke-dasharray="4 3" fill="none" fill-rule="evenodd"/><text fill="#FFFFFF" font-family="Cambria Math,Cambria Math_MSFontService,sans-serif" font-weight="400" font-size="24" transform="translate(131.142 449)">ğ‘ˆğ‘ğ‘‘ğ‘ğ‘¡ğ‘’</text><text fill="#FFFFFF" font-family="Cambria Math,Cambria Math_MSFontService,sans-serif" font-weight="400" font-size="24" transform="translate(210.002 449)"></text><text fill="#FFFFFF" font-family="Cambria Math,Cambria Math_MSFontService,sans-serif" font-weight="400" font-size="24" transform="translate(215.336 449)">ğ‘¤ğ‘’ğ‘–ğ‘”ğ‘¡â„ğ‘ </text><path d="M0 0 47.1959 77.4514" stroke="#FFFFFF" stroke-linejoin="round" stroke-miterlimit="10" stroke-dasharray="4 3" fill="none" fill-rule="evenodd" transform="matrix(1 0 0 -1 216.5 421.952)"/><path d="M117 35 1123.93 35.0001 1123.93 43.0001 117 43ZM1119.93 27.0001 1143.93 39.0001 1119.93 51.0001Z" fill="#3D9CCC" fill-opacity="0.721569"/><text fill="#FFFFFF" font-family="Cambria Math,Cambria Math_MSFontService,sans-serif" font-weight="700" font-size="24" transform="translate(531.765 27)">Forward Propagation</text><path d="M141.001 658 1147.93 658 1147.93 666 141.001 666ZM145 674 121 662 145 650Z" fill="#FF0000" fill-opacity="0.721569"/><text fill="#FFFFFF" font-family="Cambria Math,Cambria Math_MSFontService,sans-serif" font-weight="700" font-size="24" transform="translate(535.83 695)">Backward Propagation</text><path d="M382.5 333.5 382.5 352.548" stroke="#000000" stroke-linejoin="round" stroke-miterlimit="10" stroke-dasharray="8 3 1 3" fill="none" fill-rule="evenodd"/><path d="M618.5 333.5 618.5 352.548" stroke="#000000" stroke-linejoin="round" stroke-miterlimit="10" stroke-dasharray="8 3 1 3" fill="none" fill-rule="evenodd"/><path d="M854.5 333.5 854.5 352.548" stroke="#000000" stroke-linejoin="round" stroke-miterlimit="10" stroke-dasharray="8 3 1 3" fill="none" fill-rule="evenodd"/><path d="M0 0 37.8505 0.000104987" stroke="#FFFFFF" stroke-linejoin="round" stroke-miterlimit="10" stroke-dasharray="1 1" fill="none" fill-rule="evenodd" transform="matrix(-1 0 0 1 755.351 140.5)"/><path d="M0 0 50.6168 143.794" stroke="#FFFFFF" stroke-linejoin="round" stroke-miterlimit="10" stroke-dasharray="4 3" fill="none" fill-rule="evenodd" transform="matrix(1 0 0 -1 216.5 421.294)"/><path d="M0 0 44.6767 213.904" stroke="#FFFFFF" stroke-linejoin="round" stroke-miterlimit="10" stroke-dasharray="4 3" fill="none" fill-rule="evenodd" transform="matrix(1 0 0 -1 216.5 421.404)"/><rect x="1146" y="401" width="122" height="132" fill="#B0A0DD"/><text fill="#FFFFFF" font-family="Cambria Math,Cambria Math_MSFontService,sans-serif" font-weight="400" font-size="24" transform="translate(1167.06 434)">ğ‘¥</text><text fill="#FFFFFF" font-family="Cambria Math,Cambria Math_MSFontService,sans-serif" font-weight="400" font-size="16" transform="translate(1180.62 427)">*</text><text fill="#FFFFFF" font-family="Cambria Math,Cambria Math_MSFontService,sans-serif" font-weight="400" font-size="24" transform="translate(1187.45 434)">(t=0)</text><text fill="#FFFFFF" font-family="Cambria Math,Cambria Math_MSFontService,sans-serif" font-weight="400" font-size="24" transform="translate(1155.42 489)">ğ‘‘ğ‘¥</text><text fill="#FFFFFF" font-family="Cambria Math,Cambria Math_MSFontService,sans-serif" font-weight="400" font-size="16" transform="translate(1182.09 482)">âˆ—</text><text fill="#FFFFFF" font-family="Cambria Math,Cambria Math_MSFontService,sans-serif" font-weight="400" font-size="24" transform="translate(1189.76 489)">(</text><text fill="#FFFFFF" font-family="Cambria Math,Cambria Math_MSFontService,sans-serif" font-weight="400" font-size="24" transform="translate(1199.76 489)">ğ‘¡</text><text fill="#FFFFFF" font-family="Cambria Math,Cambria Math_MSFontService,sans-serif" font-weight="400" font-size="24" transform="translate(1216.51 489)">=</text><text fill="#FFFFFF" font-family="Cambria Math,Cambria Math_MSFontService,sans-serif" font-weight="400" font-size="24" transform="translate(1241.18 489)">0</text><text fill="#FFFFFF" font-family="Cambria Math,Cambria Math_MSFontService,sans-serif" font-weight="400" font-size="24" transform="translate(1254.51 489)">)</text><text fill="#FFFFFF" font-family="Cambria Math,Cambria Math_MSFontService,sans-serif" font-weight="400" font-size="24" transform="translate(1198 523)">ğ‘‘ğ‘¡</text><path d="M1155.42 498.85 1264.42 498.85 1264.42 500.85 1155.42 500.85Z" fill="#FFFFFF" fill-rule="evenodd"/><path d="M0-0.333333 56.3929-0.333333 56.3929 45.8524 56.0596 45.5191 105.453 45.5191 105.453 46.1857 55.7262 46.1857 55.7262 0 56.0596 0.333333 0 0.333333ZM104.119 41.8524 112.119 45.8524 104.119 49.8524Z" fill="#FFFFFF" transform="matrix(-1 1.22465e-16 1.22465e-16 1 1042.62 512.5)"/><path d="M1208.08 533.5 1208.08 558.545 937.167 558.545 937.167 557.879 1207.75 557.879 1207.41 558.212 1207.41 533.5ZM938.5 562.212 930.5 558.212 938.5 554.212Z" fill="#FFFFFF"/><rect x="1042" y="401" width="96" height="222" fill="#B0A0DD"/><text fill="#FFFFFF" font-family="Cambria Math,Cambria Math_MSFontService,sans-serif" font-weight="400" font-size="24" transform="translate(1065.57 435)">ğ‘¥</text><text fill="#FFFFFF" font-family="Cambria Math,Cambria Math_MSFontService,sans-serif" font-weight="400" font-size="16" transform="translate(1079.13 428)">*</text><text fill="#FFFFFF" font-family="Cambria Math,Cambria Math_MSFontService,sans-serif" font-weight="400" font-size="24" transform="translate(1085.96 435)">(t)</text><text fill="#FFFFFF" font-family="Cambria Math,Cambria Math_MSFontService,sans-serif" font-weight="400" font-size="24" transform="translate(1057.63 490)">ğ‘‘ğ‘¥</text><text fill="#FFFFFF" font-family="Cambria Math,Cambria Math_MSFontService,sans-serif" font-weight="400" font-size="16" transform="translate(1084.3 483)">âˆ—</text><text fill="#FFFFFF" font-family="Cambria Math,Cambria Math_MSFontService,sans-serif" font-weight="400" font-size="24" transform="translate(1091.97 490)">(</text><text fill="#FFFFFF" font-family="Cambria Math,Cambria Math_MSFontService,sans-serif" font-weight="400" font-size="24" transform="translate(1101.97 490)">ğ‘¡</text><text fill="#FFFFFF" font-family="Cambria Math,Cambria Math_MSFontService,sans-serif" font-weight="400" font-size="24" transform="translate(1112.05 490)">)</text><text fill="#FFFFFF" font-family="Cambria Math,Cambria Math_MSFontService,sans-serif" font-weight="400" font-size="24" transform="translate(1077.88 524)">ğ‘‘ğ‘¡</text><path d="M1057.51 500.219 1073.51 500.219 1089.51 500.219 1105.51 500.219 1121.51 500.219 1121.51 502.219 1105.51 502.219 1089.51 502.219 1073.51 502.219 1057.51 502.219Z" fill="#FFFFFF" fill-rule="evenodd"/><text fill="#FFFFFF" font-family="Cambria Math,Cambria Math_MSFontService,sans-serif" font-weight="400" font-size="24" transform="translate(1052.72 577)">ğ‘‘Â²ğ‘¥</text><text fill="#FFFFFF" font-family="Cambria Math,Cambria Math_MSFontService,sans-serif" font-weight="400" font-size="16" transform="translate(1089.22 570)">âˆ—</text><text fill="#FFFFFF" font-family="Cambria Math,Cambria Math_MSFontService,sans-serif" font-weight="400" font-size="24" transform="translate(1096.89 577)">(</text><text fill="#FFFFFF" font-family="Cambria Math,Cambria Math_MSFontService,sans-serif" font-weight="400" font-size="24" transform="translate(1106.89 577)">ğ‘¡</text><text fill="#FFFFFF" font-family="Cambria Math,Cambria Math_MSFontService,sans-serif" font-weight="400" font-size="24" transform="translate(1116.97 577)">)</text><text fill="#FFFFFF" font-family="Cambria Math,Cambria Math_MSFontService,sans-serif" font-weight="400" font-size="24" transform="translate(1073.26 612)">ğ‘‘ğ‘¡Â²</text><path d="M1052.51 587.219 1071.01 587.219 1089.51 587.219 1108.01 587.219 1126.51 587.219 1126.51 589.219 1108.01 589.219 1089.51 589.219 1071.01 589.219 1052.51 589.219Z" fill="#FFFFFF" fill-rule="evenodd"/><text fill="#FF0000" font-family="Cambria Math,Cambria Math_MSFontService,sans-serif" font-weight="700" font-size="24" transform="translate(1110.47 337)">Automatic</text><text fill="#FF0000" font-family="Cambria Math,Cambria Math_MSFontService,sans-serif" font-weight="700" font-size="24" transform="translate(1110.47 366)">Differentiation</text><path d="M0-0.333333 60.9184-0.333333 60.9184 117.128 60.5851 116.795 71.0315 116.795 71.0315 117.461 60.2518 117.461 60.2518 0 60.5851 0.333333 0 0.333333ZM69.6982 113.128 77.6982 117.128 69.6982 121.128Z" fill="#FFFFFF" transform="matrix(1.83697e-16 1 1 -1.83697e-16 1090.5 323.5)"/></g></svg>